<svg xmlns="http://www.w3.org/2000/svg" xmlns:xlink="http://www.w3.org/1999/xlink" width="40" zoomAndPan="magnify" viewBox="0 0 30 30.000001" height="40" preserveAspectRatio="xMidYMid meet" version="1.0"><path fill="#ffffff" d="M 15.027344 8.386719 C 15.097656 8.285156 15.15625 8.210938 15.207031 8.132812 C 15.882812 7.050781 16.546875 5.960938 17.234375 4.882812 C 17.738281 4.09375 18.640625 3.902344 19.449219 4.394531 C 21.445312 5.617188 23.441406 6.839844 25.4375 8.070312 C 26.242188 8.566406 26.464844 9.46875 25.96875 10.289062 C 25.148438 11.644531 23.625 13.261719 23.785156 14.945312 C 23.859375 15.695312 24.222656 16.191406 24.640625 16.777344 C 25.121094 17.457031 25.527344 18.210938 25.960938 18.921875 C 26.460938 19.734375 26.261719 20.636719 25.445312 21.144531 C 23.457031 22.378906 21.460938 23.609375 19.464844 24.832031 C 18.625 25.34375 17.742188 25.140625 17.214844 24.3125 C 16.523438 23.226562 15.851562 22.125 15.171875 21.035156 C 15.152344 21.003906 15.128906 20.972656 15.078125 20.90625 C 14.753906 21.425781 14.445312 21.917969 14.140625 22.414062 C 13.730469 23.066406 13.328125 23.726562 12.917969 24.382812 C 12.402344 25.203125 11.496094 25.421875 10.667969 24.914062 C 8.660156 23.6875 6.652344 22.453125 4.652344 21.214844 C 3.871094 20.734375 3.65625 19.824219 4.128906 19.039062 C 4.492188 18.445312 4.859375 17.855469 5.222656 17.265625 C 5.554688 16.730469 6.035156 16.152344 6.226562 15.554688 C 6.496094 14.71875 6.285156 13.765625 5.847656 13.023438 C 5.617188 12.632812 5.328125 12.28125 5.085938 11.894531 C 4.785156 11.410156 4.484375 10.929688 4.183594 10.445312 C 3.636719 9.5625 3.839844 8.667969 4.730469 8.117188 C 6.714844 6.890625 8.699219 5.667969 10.6875 4.449219 C 11.511719 3.945312 12.417969 4.195312 12.945312 5.050781 C 13.605469 6.113281 14.261719 7.171875 14.917969 8.234375 C 14.945312 8.277344 14.972656 8.3125 15.027344 8.386719 Z M 10.988281 7.9375 C 9.851562 8.640625 8.734375 9.328125 7.613281 10.019531 C 7.75 10.246094 7.855469 10.425781 7.964844 10.601562 C 8.671875 11.730469 9.328125 12.730469 9.460938 14.089844 C 9.589844 15.402344 9.3125 16.886719 8.496094 17.949219 C 8.164062 18.382812 7.910156 18.882812 7.609375 19.371094 C 8.757812 20.074219 9.878906 20.765625 11.027344 21.472656 C 11.226562 21.148438 11.417969 20.863281 11.589844 20.566406 C 12.050781 19.761719 12.578125 18.980469 12.949219 18.136719 C 13.601562 16.652344 13.558594 15.0625 13.460938 13.480469 C 13.410156 12.648438 13.28125 11.8125 12.882812 11.070312 C 12.324219 10.035156 11.699219 9.035156 11.101562 8.023438 C 11.082031 7.992188 11.039062 7.976562 10.988281 7.9375 Z M 22.5 9.9375 C 21.335938 9.222656 20.222656 8.539062 19.148438 7.882812 C 17.269531 10.15625 16.390625 12.683594 16.609375 15.628906 C 16.773438 17.871094 17.941406 19.589844 19.097656 21.386719 C 20.25 20.675781 21.367188 19.988281 22.5 19.289062 C 21.8125 18.175781 21.027344 17.175781 20.746094 15.871094 C 20.410156 14.273438 20.742188 12.792969 21.582031 11.425781 C 21.882812 10.9375 22.183594 10.453125 22.5 9.9375 Z M 22.5 9.9375 " fill-opacity="1" fill-rule="nonzero"/></svg>