<svg xmlns="http://www.w3.org/2000/svg" xmlns:xlink="http://www.w3.org/1999/xlink" width="40" zoomAndPan="magnify" viewBox="0 0 30 30.000001" height="40" preserveAspectRatio="xMidYMid meet" version="1.0"><path fill="#333333" d="M 15.007812 8.425781 C 15.082031 8.324219 15.136719 8.25 15.1875 8.167969 C 15.863281 7.082031 16.53125 5.988281 17.21875 4.90625 C 17.71875 4.117188 18.621094 3.921875 19.425781 4.417969 C 21.421875 5.644531 23.417969 6.875 25.410156 8.105469 C 26.21875 8.605469 26.4375 9.511719 25.941406 10.332031 C 25.121094 11.695312 23.601562 13.316406 23.761719 15.007812 C 23.832031 15.757812 24.195312 16.253906 24.613281 16.84375 C 25.097656 17.527344 25.5 18.28125 25.9375 18.996094 C 26.433594 19.8125 26.234375 20.71875 25.421875 21.226562 C 23.433594 22.464844 21.441406 23.699219 19.441406 24.925781 C 18.605469 25.441406 17.722656 25.238281 17.195312 24.40625 C 16.503906 23.316406 15.835938 22.210938 15.15625 21.117188 C 15.136719 21.085938 15.113281 21.054688 15.0625 20.988281 C 14.738281 21.507812 14.429688 22.003906 14.125 22.5 C 13.714844 23.15625 13.3125 23.820312 12.902344 24.476562 C 12.386719 25.300781 11.480469 25.519531 10.652344 25.007812 C 8.644531 23.777344 6.644531 22.539062 4.644531 21.296875 C 3.863281 20.816406 3.648438 19.902344 4.121094 19.113281 C 4.480469 18.519531 4.851562 17.925781 5.214844 17.332031 C 5.542969 16.800781 6.027344 16.214844 6.21875 15.617188 C 6.484375 14.777344 6.277344 13.820312 5.835938 13.078125 C 5.605469 12.6875 5.316406 12.332031 5.078125 11.941406 C 4.777344 11.457031 4.476562 10.972656 4.175781 10.488281 C 3.628906 9.601562 3.832031 8.703125 4.722656 8.152344 C 6.703125 6.921875 8.6875 5.695312 10.675781 4.472656 C 11.496094 3.96875 12.402344 4.214844 12.933594 5.074219 C 13.589844 6.140625 14.246094 7.207031 14.902344 8.269531 C 14.925781 8.3125 14.957031 8.351562 15.007812 8.425781 Z M 10.976562 7.972656 C 9.839844 8.675781 8.722656 9.371094 7.601562 10.0625 C 7.738281 10.289062 7.847656 10.46875 7.953125 10.644531 C 8.660156 11.78125 9.316406 12.78125 9.449219 14.148438 C 9.574219 15.460938 9.300781 16.953125 8.484375 18.019531 C 8.152344 18.457031 7.902344 18.957031 7.597656 19.445312 C 8.746094 20.152344 9.867188 20.84375 11.015625 21.554688 C 11.214844 21.230469 11.402344 20.941406 11.574219 20.644531 C 12.035156 19.835938 12.5625 19.054688 12.933594 18.207031 C 13.585938 16.71875 13.542969 15.121094 13.445312 13.535156 C 13.394531 12.703125 13.265625 11.859375 12.867188 11.117188 C 12.308594 10.078125 11.683594 9.074219 11.085938 8.058594 C 11.070312 8.027344 11.027344 8.011719 10.976562 7.972656 Z M 22.476562 9.980469 C 21.3125 9.261719 20.203125 8.578125 19.128906 7.917969 C 17.25 10.199219 16.371094 12.734375 16.589844 15.695312 C 16.753906 17.941406 17.921875 19.667969 19.074219 21.46875 C 20.226562 20.753906 21.34375 20.066406 22.476562 19.363281 C 21.789062 18.246094 21.003906 17.242188 20.726562 15.933594 C 20.386719 14.332031 20.71875 12.847656 21.558594 11.472656 C 21.859375 10.984375 22.160156 10.496094 22.476562 9.980469 Z M 22.476562 9.980469 " fill-opacity="1" fill-rule="nonzero"/></svg>