<svg xmlns="http://www.w3.org/2000/svg" xmlns:xlink="http://www.w3.org/1999/xlink" width="160" zoomAndPan="magnify" viewBox="0 0 120 30.000001" height="40" preserveAspectRatio="xMidYMid meet" version="1.0"><path fill="#333333" d="M 18.074219 7.625 C 18.136719 7.535156 18.1875 7.472656 18.230469 7.402344 C 18.816406 6.460938 19.394531 5.507812 19.992188 4.570312 C 20.429688 3.882812 21.210938 3.714844 21.910156 4.144531 C 23.644531 5.210938 25.378906 6.277344 27.109375 7.347656 C 27.808594 7.78125 28 8.566406 27.570312 9.28125 C 26.855469 10.464844 25.535156 11.875 25.675781 13.339844 C 25.738281 13.996094 26.054688 14.425781 26.417969 14.9375 C 26.835938 15.527344 27.1875 16.1875 27.566406 16.804688 C 27.996094 17.515625 27.824219 18.300781 27.117188 18.742188 C 25.390625 19.820312 23.660156 20.890625 21.925781 21.953125 C 21.195312 22.402344 20.429688 22.226562 19.972656 21.503906 C 19.375 20.558594 18.792969 19.597656 18.203125 18.644531 C 18.1875 18.617188 18.164062 18.59375 18.121094 18.535156 C 17.839844 18.988281 17.574219 19.417969 17.304688 19.847656 C 16.953125 20.417969 16.601562 20.992188 16.246094 21.5625 C 15.796875 22.277344 15.011719 22.46875 14.292969 22.027344 C 12.550781 20.957031 10.8125 19.882812 9.074219 18.804688 C 8.398438 18.386719 8.210938 17.59375 8.621094 16.910156 C 8.933594 16.390625 9.253906 15.878906 9.570312 15.363281 C 9.855469 14.898438 10.277344 14.390625 10.441406 13.871094 C 10.675781 13.140625 10.492188 12.3125 10.109375 11.667969 C 9.910156 11.324219 9.660156 11.019531 9.453125 10.679688 C 9.191406 10.261719 8.929688 9.839844 8.667969 9.417969 C 8.191406 8.648438 8.371094 7.867188 9.140625 7.390625 C 10.863281 6.320312 12.585938 5.257812 14.3125 4.195312 C 15.027344 3.753906 15.8125 3.972656 16.273438 4.714844 C 16.84375 5.640625 17.414062 6.566406 17.984375 7.492188 C 18.003906 7.527344 18.027344 7.5625 18.074219 7.625 Z M 14.574219 7.234375 C 13.585938 7.84375 12.617188 8.445312 11.644531 9.046875 C 11.761719 9.246094 11.855469 9.402344 11.949219 9.554688 C 12.5625 10.539062 13.132812 11.410156 13.246094 12.597656 C 13.355469 13.738281 13.117188 15.03125 12.410156 15.957031 C 12.121094 16.335938 11.902344 16.769531 11.640625 17.195312 C 12.636719 17.8125 13.609375 18.410156 14.609375 19.027344 C 14.78125 18.746094 14.945312 18.496094 15.09375 18.238281 C 15.492188 17.535156 15.949219 16.859375 16.273438 16.121094 C 16.839844 14.828125 16.800781 13.441406 16.71875 12.066406 C 16.671875 11.339844 16.5625 10.609375 16.214844 9.960938 C 15.730469 9.058594 15.1875 8.191406 14.667969 7.308594 C 14.652344 7.28125 14.617188 7.265625 14.574219 7.234375 Z M 24.558594 8.976562 C 23.550781 8.355469 22.585938 7.757812 21.652344 7.183594 C 20.023438 9.164062 19.257812 11.367188 19.449219 13.9375 C 19.59375 15.890625 20.605469 17.390625 21.609375 18.953125 C 22.609375 18.332031 23.574219 17.734375 24.558594 17.125 C 23.964844 16.15625 23.28125 15.285156 23.039062 14.144531 C 22.746094 12.757812 23.035156 11.464844 23.765625 10.273438 C 24.023438 9.847656 24.285156 9.425781 24.558594 8.976562 Z M 24.558594 8.976562 " fill-opacity="1" fill-rule="nonzero"/><path fill="#333333" d="M 34.433594 16.316406 C 33.84375 16.011719 33.382812 15.585938 33.050781 15.046875 C 32.71875 14.503906 32.554688 13.890625 32.554688 13.199219 C 32.554688 12.511719 32.71875 11.898438 33.050781 11.355469 C 33.382812 10.8125 33.84375 10.386719 34.433594 10.082031 C 35.019531 9.777344 35.6875 9.625 36.425781 9.625 C 37.15625 9.625 37.796875 9.777344 38.34375 10.082031 C 38.886719 10.386719 39.285156 10.824219 39.535156 11.394531 L 37.972656 12.230469 C 37.613281 11.597656 37.09375 11.277344 36.414062 11.277344 C 35.886719 11.277344 35.453125 11.449219 35.109375 11.792969 C 34.765625 12.136719 34.59375 12.605469 34.59375 13.199219 C 34.59375 13.792969 34.765625 14.261719 35.109375 14.605469 C 35.453125 14.953125 35.886719 15.125 36.414062 15.125 C 37.101562 15.125 37.621094 14.804688 37.972656 14.167969 L 39.535156 15.019531 C 39.285156 15.570312 38.886719 16 38.34375 16.308594 C 37.796875 16.621094 37.15625 16.773438 36.425781 16.773438 C 35.6875 16.773438 35.023438 16.621094 34.433594 16.316406 Z M 34.433594 16.316406 " fill-opacity="1" fill-rule="nonzero"/><path fill="#333333" d="M 41.828125 16.316406 C 41.246094 16.011719 40.792969 15.585938 40.464844 15.046875 C 40.140625 14.503906 39.976562 13.890625 39.976562 13.199219 C 39.976562 12.511719 40.140625 11.898438 40.464844 11.355469 C 40.792969 10.8125 41.246094 10.386719 41.828125 10.082031 C 42.410156 9.777344 43.066406 9.625 43.796875 9.625 C 44.527344 9.625 45.183594 9.777344 45.757812 10.082031 C 46.335938 10.386719 46.785156 10.8125 47.113281 11.355469 C 47.441406 11.894531 47.605469 12.511719 47.605469 13.199219 C 47.605469 13.886719 47.441406 14.503906 47.113281 15.046875 C 46.785156 15.585938 46.335938 16.011719 45.757812 16.316406 C 45.183594 16.621094 44.527344 16.777344 43.796875 16.777344 C 43.066406 16.773438 42.410156 16.621094 41.828125 16.316406 Z M 45.066406 14.601562 C 45.398438 14.253906 45.566406 13.785156 45.566406 13.199219 C 45.566406 12.613281 45.398438 12.148438 45.066406 11.800781 C 44.734375 11.453125 44.3125 11.277344 43.796875 11.277344 C 43.28125 11.277344 42.855469 11.449219 42.519531 11.800781 C 42.183594 12.148438 42.015625 12.617188 42.015625 13.199219 C 42.015625 13.785156 42.183594 14.253906 42.519531 14.601562 C 42.855469 14.949219 43.28125 15.125 43.796875 15.125 C 44.3125 15.125 44.734375 14.949219 45.066406 14.601562 Z M 45.066406 14.601562 " fill-opacity="1" fill-rule="nonzero"/><path fill="#333333" d="M 59.792969 10.390625 C 60.304688 10.902344 60.5625 11.671875 60.5625 12.695312 L 60.5625 16.671875 L 58.550781 16.671875 L 58.550781 13.007812 C 58.550781 12.457031 58.433594 12.046875 58.207031 11.773438 C 57.980469 11.503906 57.652344 11.367188 57.230469 11.367188 C 56.757812 11.367188 56.386719 11.519531 56.109375 11.824219 C 55.832031 12.128906 55.695312 12.585938 55.695312 13.1875 L 55.695312 16.671875 L 53.683594 16.671875 L 53.683594 13.007812 C 53.683594 11.914062 53.246094 11.367188 52.367188 11.367188 C 51.902344 11.367188 51.53125 11.519531 51.257812 11.828125 C 50.980469 12.132812 50.84375 12.585938 50.84375 13.1875 L 50.84375 16.671875 L 48.832031 16.671875 L 48.832031 9.726562 L 50.753906 9.726562 L 50.753906 10.527344 C 51.011719 10.234375 51.328125 10.011719 51.703125 9.855469 C 52.078125 9.703125 52.488281 9.625 52.9375 9.625 C 53.425781 9.625 53.871094 9.71875 54.265625 9.914062 C 54.660156 10.109375 54.980469 10.390625 55.222656 10.761719 C 55.503906 10.398438 55.863281 10.121094 56.300781 9.921875 C 56.734375 9.722656 57.210938 9.625 57.726562 9.625 C 58.59375 9.625 59.285156 9.882812 59.792969 10.390625 Z M 59.792969 10.390625 " fill-opacity="1" fill-rule="nonzero"/><path fill="#333333" d="M 64.214844 9.882812 L 65.996094 9.882812 L 65.996094 11.429688 L 64.265625 11.429688 L 64.265625 16.671875 L 62.253906 16.671875 L 62.253906 9.570312 C 62.253906 8.78125 62.488281 8.152344 62.957031 7.6875 C 63.425781 7.222656 64.085938 6.992188 64.9375 6.992188 C 65.238281 6.992188 65.527344 7.023438 65.796875 7.085938 C 66.066406 7.152344 66.292969 7.242188 66.472656 7.363281 L 65.945312 8.824219 C 65.710938 8.660156 65.441406 8.578125 65.132812 8.578125 C 64.519531 8.578125 64.214844 8.914062 64.214844 9.585938 Z M 64.214844 9.882812 " fill-opacity="1" fill-rule="nonzero"/><path fill="#333333" d="M 68.132812 16.316406 C 67.550781 16.011719 67.097656 15.585938 66.769531 15.046875 C 66.441406 14.503906 66.28125 13.890625 66.28125 13.199219 C 66.28125 12.511719 66.441406 11.898438 66.769531 11.355469 C 67.097656 10.8125 67.550781 10.386719 68.132812 10.082031 C 68.714844 9.777344 69.371094 9.625 70.101562 9.625 C 70.832031 9.625 71.488281 9.777344 72.0625 10.082031 C 72.640625 10.386719 73.089844 10.8125 73.417969 11.355469 C 73.746094 11.894531 73.910156 12.511719 73.910156 13.199219 C 73.910156 13.886719 73.746094 14.503906 73.417969 15.046875 C 73.089844 15.585938 72.640625 16.011719 72.0625 16.316406 C 71.488281 16.621094 70.832031 16.777344 70.101562 16.777344 C 69.371094 16.773438 68.714844 16.621094 68.132812 16.316406 Z M 71.375 14.601562 C 71.703125 14.253906 71.871094 13.785156 71.871094 13.199219 C 71.871094 12.613281 71.703125 12.148438 71.375 11.800781 C 71.042969 11.453125 70.617188 11.277344 70.101562 11.277344 C 69.585938 11.277344 69.160156 11.449219 68.824219 11.800781 C 68.488281 12.148438 68.320312 12.617188 68.320312 13.199219 C 68.320312 13.785156 68.488281 14.253906 68.824219 14.601562 C 69.160156 14.949219 69.585938 15.125 70.101562 15.125 C 70.617188 15.125 71.042969 14.949219 71.375 14.601562 Z M 71.375 14.601562 " fill-opacity="1" fill-rule="nonzero"/><path fill="#333333" d="M 78.035156 9.882812 C 78.441406 9.710938 78.914062 9.625 79.445312 9.625 L 79.445312 11.484375 C 79.222656 11.464844 79.070312 11.457031 78.996094 11.457031 C 78.417969 11.457031 77.964844 11.617188 77.640625 11.941406 C 77.3125 12.265625 77.148438 12.75 77.148438 13.394531 L 77.148438 16.671875 L 75.136719 16.671875 L 75.136719 9.726562 L 77.058594 9.726562 L 77.058594 10.644531 C 77.300781 10.308594 77.625 10.054688 78.035156 9.882812 Z M 78.035156 9.882812 " fill-opacity="1" fill-rule="nonzero"/><path fill="#333333" d="M 84.714844 16.335938 C 84.515625 16.480469 84.273438 16.589844 83.984375 16.664062 C 83.695312 16.738281 83.394531 16.773438 83.085938 16.773438 C 82.253906 16.773438 81.609375 16.5625 81.164062 16.140625 C 80.714844 15.71875 80.492188 15.101562 80.492188 14.285156 L 80.492188 8.191406 L 82.507812 8.191406 L 82.507812 9.882812 L 84.222656 9.882812 L 84.222656 11.429688 L 82.507812 11.429688 L 82.507812 14.257812 C 82.507812 14.550781 82.578125 14.777344 82.726562 14.933594 C 82.871094 15.09375 83.082031 15.175781 83.359375 15.175781 C 83.667969 15.175781 83.941406 15.085938 84.183594 14.914062 Z M 84.714844 16.335938 " fill-opacity="1" fill-rule="nonzero"/><path fill="#333333" d="M 92.039062 10.398438 C 92.566406 10.914062 92.832031 11.679688 92.832031 12.695312 L 92.832031 16.671875 L 90.820312 16.671875 L 90.820312 13.007812 C 90.820312 12.457031 90.699219 12.046875 90.457031 11.773438 C 90.214844 11.503906 89.867188 11.367188 89.410156 11.367188 C 88.902344 11.367188 88.5 11.523438 88.199219 11.835938 C 87.898438 12.152344 87.746094 12.617188 87.746094 13.238281 L 87.746094 16.671875 L 85.734375 16.671875 L 85.734375 7.09375 L 87.746094 7.09375 L 87.746094 10.449219 C 88.011719 10.183594 88.335938 9.980469 88.714844 9.835938 C 89.09375 9.695312 89.507812 9.625 89.953125 9.625 C 90.8125 9.625 91.507812 9.882812 92.039062 10.398438 Z M 92.039062 10.398438 " fill-opacity="1" fill-rule="nonzero"/><path fill="#333333" d="M 101.53125 9.726562 L 101.53125 16.671875 L 99.621094 16.671875 L 99.621094 15.847656 C 99.351562 16.148438 99.035156 16.378906 98.664062 16.535156 C 98.292969 16.695312 97.894531 16.773438 97.464844 16.773438 C 96.550781 16.773438 95.828125 16.511719 95.292969 15.988281 C 94.761719 15.464844 94.496094 14.683594 94.496094 13.652344 L 94.496094 9.726562 L 96.507812 9.726562 L 96.507812 13.355469 C 96.507812 14.472656 96.976562 15.03125 97.914062 15.03125 C 98.398438 15.03125 98.785156 14.875 99.078125 14.5625 C 99.371094 14.246094 99.515625 13.78125 99.515625 13.160156 L 99.515625 9.726562 Z M 101.53125 9.726562 " fill-opacity="1" fill-rule="nonzero"/><path fill="#333333" d="M 109.152344 10.070312 C 109.683594 10.367188 110.097656 10.785156 110.398438 11.320312 C 110.699219 11.859375 110.851562 12.484375 110.851562 13.199219 C 110.851562 13.914062 110.699219 14.539062 110.398438 15.078125 C 110.097656 15.617188 109.683594 16.035156 109.152344 16.328125 C 108.625 16.628906 108.035156 16.773438 107.390625 16.773438 C 106.433594 16.773438 105.707031 16.472656 105.210938 15.871094 L 105.210938 16.671875 L 103.285156 16.671875 L 103.285156 7.09375 L 105.300781 7.09375 L 105.300781 10.460938 C 105.804688 9.902344 106.503906 9.625 107.390625 9.625 C 108.035156 9.625 108.625 9.773438 109.152344 10.070312 Z M 108.3125 14.601562 C 108.644531 14.253906 108.8125 13.785156 108.8125 13.199219 C 108.8125 12.613281 108.644531 12.148438 108.3125 11.800781 C 107.980469 11.453125 107.558594 11.277344 107.042969 11.277344 C 106.527344 11.277344 106.101562 11.449219 105.773438 11.800781 C 105.441406 12.148438 105.273438 12.617188 105.273438 13.199219 C 105.273438 13.785156 105.441406 14.253906 105.773438 14.601562 C 106.101562 14.949219 106.527344 15.125 107.042969 15.125 C 107.558594 15.125 107.980469 14.949219 108.3125 14.601562 Z M 108.3125 14.601562 " fill-opacity="1" fill-rule="nonzero"/><path fill="#333333" d="M 73.363281 20.6875 C 73.546875 20.789062 73.691406 20.933594 73.796875 21.121094 C 73.902344 21.304688 73.953125 21.519531 73.953125 21.761719 C 73.953125 22.003906 73.902344 22.21875 73.796875 22.40625 C 73.691406 22.59375 73.546875 22.738281 73.363281 22.839844 C 73.179688 22.941406 72.972656 22.996094 72.738281 22.996094 C 72.570312 22.996094 72.421875 22.964844 72.285156 22.910156 C 72.148438 22.851562 72.035156 22.765625 71.941406 22.652344 L 71.941406 22.964844 L 71.40625 22.964844 L 71.40625 19.628906 L 71.96875 19.628906 L 71.96875 20.855469 C 72.066406 20.75 72.179688 20.671875 72.308594 20.617188 C 72.4375 20.5625 72.582031 20.535156 72.738281 20.535156 C 72.972656 20.535156 73.179688 20.585938 73.363281 20.6875 Z M 73.183594 22.304688 C 73.316406 22.167969 73.382812 21.988281 73.382812 21.761719 C 73.382812 21.539062 73.316406 21.355469 73.183594 21.21875 C 73.050781 21.082031 72.882812 21.011719 72.671875 21.011719 C 72.539062 21.011719 72.417969 21.042969 72.308594 21.105469 C 72.199219 21.164062 72.117188 21.253906 72.054688 21.367188 C 71.988281 21.480469 71.957031 21.613281 71.957031 21.761719 C 71.957031 21.914062 71.988281 22.042969 72.054688 22.15625 C 72.117188 22.273438 72.203125 22.359375 72.308594 22.421875 C 72.417969 22.480469 72.539062 22.511719 72.671875 22.511719 C 72.882812 22.511719 73.050781 22.445312 73.183594 22.304688 Z M 73.183594 22.304688 " fill-opacity="1" fill-rule="nonzero"/><path fill="#333333" d="M 76.816406 20.5625 L 76.816406 22.964844 L 76.28125 22.964844 L 76.28125 22.65625 C 76.191406 22.765625 76.082031 22.847656 75.945312 22.90625 C 75.8125 22.964844 75.667969 22.996094 75.511719 22.996094 C 75.191406 22.996094 74.9375 22.90625 74.753906 22.726562 C 74.570312 22.546875 74.476562 22.285156 74.476562 21.933594 L 74.476562 20.5625 L 75.039062 20.5625 L 75.039062 21.855469 C 75.039062 22.074219 75.085938 22.234375 75.1875 22.339844 C 75.28125 22.445312 75.421875 22.5 75.601562 22.5 C 75.800781 22.5 75.960938 22.4375 76.082031 22.3125 C 76.199219 22.1875 76.257812 22.007812 76.257812 21.773438 L 76.257812 20.5625 Z M 76.816406 20.5625 " fill-opacity="1" fill-rule="nonzero"/><path fill="#333333" d="M 77.585938 20.070312 C 77.515625 20.007812 77.484375 19.925781 77.484375 19.828125 C 77.484375 19.734375 77.515625 19.652344 77.585938 19.589844 C 77.65625 19.523438 77.742188 19.492188 77.84375 19.492188 C 77.945312 19.492188 78.027344 19.523438 78.097656 19.585938 C 78.167969 19.644531 78.203125 19.722656 78.203125 19.816406 C 78.203125 19.914062 78.167969 20 78.101562 20.066406 C 78.035156 20.132812 77.945312 20.167969 77.84375 20.167969 C 77.742188 20.167969 77.65625 20.136719 77.585938 20.070312 Z M 77.558594 20.5625 L 78.121094 20.5625 L 78.121094 22.964844 L 77.558594 22.964844 Z M 77.558594 20.5625 " fill-opacity="1" fill-rule="nonzero"/><path fill="#333333" d="M 79.070312 22.789062 C 78.933594 22.652344 78.863281 22.460938 78.863281 22.210938 L 78.863281 19.628906 L 79.425781 19.628906 L 79.425781 22.171875 C 79.425781 22.410156 79.539062 22.53125 79.761719 22.53125 C 79.835938 22.53125 79.902344 22.515625 79.964844 22.484375 L 79.992188 22.9375 C 79.886719 22.976562 79.773438 22.996094 79.652344 22.996094 C 79.40625 22.996094 79.210938 22.925781 79.070312 22.789062 Z M 79.070312 22.789062 " fill-opacity="1" fill-rule="nonzero"/><path fill="#333333" d="M 82.683594 19.628906 L 82.683594 22.960938 L 82.144531 22.960938 L 82.144531 22.652344 C 82.050781 22.765625 81.9375 22.851562 81.800781 22.90625 C 81.664062 22.964844 81.511719 22.992188 81.347656 22.992188 C 81.117188 22.992188 80.910156 22.941406 80.726562 22.839844 C 80.542969 22.738281 80.398438 22.59375 80.292969 22.40625 C 80.1875 22.21875 80.136719 22.003906 80.136719 21.761719 C 80.136719 21.519531 80.1875 21.304688 80.292969 21.117188 C 80.398438 20.933594 80.542969 20.789062 80.726562 20.6875 C 80.910156 20.585938 81.117188 20.535156 81.347656 20.535156 C 81.507812 20.535156 81.652344 20.5625 81.785156 20.613281 C 81.914062 20.667969 82.027344 20.75 82.121094 20.859375 L 82.121094 19.625 L 82.683594 19.625 Z M 81.78125 22.421875 C 81.886719 22.359375 81.972656 22.273438 82.035156 22.15625 C 82.097656 22.042969 82.128906 21.914062 82.128906 21.761719 C 82.128906 21.613281 82.097656 21.480469 82.035156 21.367188 C 81.972656 21.253906 81.886719 21.164062 81.78125 21.105469 C 81.671875 21.042969 81.550781 21.011719 81.414062 21.011719 C 81.28125 21.011719 81.160156 21.042969 81.050781 21.105469 C 80.945312 21.164062 80.859375 21.253906 80.796875 21.367188 C 80.734375 21.480469 80.703125 21.613281 80.703125 21.761719 C 80.703125 21.914062 80.734375 22.042969 80.796875 22.15625 C 80.859375 22.273438 80.945312 22.359375 81.050781 22.421875 C 81.160156 22.480469 81.28125 22.511719 81.414062 22.511719 C 81.550781 22.511719 81.671875 22.484375 81.78125 22.421875 Z M 81.78125 22.421875 " fill-opacity="1" fill-rule="nonzero"/><path fill="#333333" d="M 86.628906 20.6875 C 86.8125 20.789062 86.957031 20.933594 87.0625 21.121094 C 87.164062 21.304688 87.21875 21.519531 87.21875 21.761719 C 87.21875 22.003906 87.164062 22.21875 87.0625 22.40625 C 86.957031 22.59375 86.808594 22.738281 86.628906 22.839844 C 86.441406 22.941406 86.234375 22.996094 86 22.996094 C 85.835938 22.996094 85.683594 22.964844 85.546875 22.910156 C 85.414062 22.851562 85.296875 22.765625 85.207031 22.652344 L 85.207031 22.964844 L 84.671875 22.964844 L 84.671875 19.628906 L 85.234375 19.628906 L 85.234375 20.855469 C 85.328125 20.75 85.441406 20.671875 85.570312 20.617188 C 85.703125 20.5625 85.84375 20.535156 86 20.535156 C 86.234375 20.535156 86.441406 20.585938 86.628906 20.6875 Z M 86.449219 22.304688 C 86.582031 22.167969 86.648438 21.988281 86.648438 21.761719 C 86.648438 21.539062 86.582031 21.355469 86.449219 21.21875 C 86.3125 21.082031 86.144531 21.011719 85.9375 21.011719 C 85.800781 21.011719 85.679688 21.042969 85.574219 21.105469 C 85.464844 21.164062 85.378906 21.253906 85.316406 21.367188 C 85.253906 21.480469 85.222656 21.613281 85.222656 21.761719 C 85.222656 21.914062 85.253906 22.042969 85.316406 22.15625 C 85.378906 22.273438 85.464844 22.359375 85.574219 22.421875 C 85.679688 22.480469 85.800781 22.511719 85.9375 22.511719 C 86.144531 22.511719 86.3125 22.445312 86.449219 22.304688 Z M 86.449219 22.304688 " fill-opacity="1" fill-rule="nonzero"/><path fill="#333333" d="M 89.550781 22.257812 L 89.847656 22.601562 C 89.742188 22.730469 89.605469 22.828125 89.441406 22.894531 C 89.277344 22.960938 89.089844 22.996094 88.882812 22.996094 C 88.621094 22.996094 88.386719 22.941406 88.1875 22.835938 C 87.988281 22.734375 87.832031 22.585938 87.722656 22.398438 C 87.613281 22.214844 87.558594 22 87.558594 21.765625 C 87.558594 21.53125 87.613281 21.320312 87.71875 21.132812 C 87.824219 20.945312 87.972656 20.800781 88.15625 20.695312 C 88.34375 20.589844 88.554688 20.535156 88.792969 20.535156 C 89.019531 20.535156 89.222656 20.585938 89.40625 20.683594 C 89.589844 20.78125 89.738281 20.917969 89.84375 21.101562 C 89.953125 21.28125 90.007812 21.492188 90.007812 21.738281 L 88.167969 22.097656 C 88.222656 22.234375 88.316406 22.339844 88.441406 22.410156 C 88.566406 22.484375 88.71875 22.519531 88.894531 22.519531 C 89.160156 22.515625 89.378906 22.429688 89.550781 22.257812 Z M 88.292969 21.1875 C 88.164062 21.324219 88.101562 21.503906 88.101562 21.730469 L 88.101562 21.734375 L 89.460938 21.476562 C 89.421875 21.328125 89.34375 21.210938 89.222656 21.121094 C 89.105469 21.03125 88.960938 20.984375 88.796875 20.984375 C 88.589844 20.984375 88.421875 21.050781 88.292969 21.1875 Z M 88.292969 21.1875 " fill-opacity="1" fill-rule="nonzero"/><path fill="#333333" d="M 92.898438 20.5625 L 92.898438 22.964844 L 92.363281 22.964844 L 92.363281 22.652344 C 92.269531 22.765625 92.15625 22.851562 92.019531 22.910156 C 91.882812 22.964844 91.734375 22.996094 91.570312 22.996094 C 91.335938 22.996094 91.125 22.945312 90.941406 22.839844 C 90.757812 22.738281 90.613281 22.597656 90.511719 22.410156 C 90.40625 22.226562 90.355469 22.007812 90.355469 21.761719 C 90.355469 21.515625 90.410156 21.300781 90.511719 21.117188 C 90.613281 20.933594 90.757812 20.789062 90.941406 20.6875 C 91.125 20.585938 91.335938 20.535156 91.570312 20.535156 C 91.722656 20.535156 91.867188 20.5625 91.996094 20.617188 C 92.128906 20.671875 92.242188 20.75 92.335938 20.855469 L 92.335938 20.5625 Z M 92.144531 22.304688 C 92.277344 22.167969 92.34375 21.988281 92.34375 21.761719 C 92.34375 21.539062 92.277344 21.355469 92.144531 21.21875 C 92.007812 21.082031 91.839844 21.011719 91.632812 21.011719 C 91.421875 21.011719 91.253906 21.082031 91.121094 21.21875 C 90.988281 21.355469 90.921875 21.539062 90.921875 21.761719 C 90.921875 21.988281 90.988281 22.167969 91.121094 22.304688 C 91.253906 22.445312 91.421875 22.511719 91.632812 22.511719 C 91.839844 22.511719 92.007812 22.445312 92.144531 22.304688 Z M 92.144531 22.304688 " fill-opacity="1" fill-rule="nonzero"/><path fill="#333333" d="M 95.964844 20.5625 L 95.964844 22.964844 L 95.429688 22.964844 L 95.429688 22.65625 C 95.339844 22.765625 95.226562 22.847656 95.09375 22.90625 C 94.957031 22.964844 94.8125 22.996094 94.65625 22.996094 C 94.335938 22.996094 94.085938 22.90625 93.898438 22.726562 C 93.714844 22.546875 93.625 22.285156 93.625 21.933594 L 93.625 20.5625 L 94.1875 20.5625 L 94.1875 21.855469 C 94.1875 22.074219 94.234375 22.234375 94.332031 22.339844 C 94.429688 22.445312 94.570312 22.5 94.75 22.5 C 94.949219 22.5 95.109375 22.4375 95.226562 22.3125 C 95.34375 22.1875 95.402344 22.007812 95.402344 21.773438 L 95.402344 20.5625 Z M 95.964844 20.5625 " fill-opacity="1" fill-rule="nonzero"/><path fill="#333333" d="M 98.054688 22.832031 C 97.988281 22.886719 97.90625 22.925781 97.8125 22.953125 C 97.71875 22.980469 97.621094 22.992188 97.515625 22.992188 C 97.25 22.992188 97.046875 22.925781 96.902344 22.785156 C 96.757812 22.648438 96.6875 22.449219 96.6875 22.183594 L 96.6875 20.03125 L 97.25 20.03125 L 97.25 20.582031 L 97.894531 20.582031 L 97.894531 21.03125 L 97.25 21.03125 L 97.25 22.171875 C 97.25 22.289062 97.28125 22.378906 97.339844 22.4375 C 97.398438 22.5 97.476562 22.53125 97.582031 22.53125 C 97.707031 22.53125 97.8125 22.496094 97.898438 22.433594 Z M 98.054688 22.832031 " fill-opacity="1" fill-rule="nonzero"/><path fill="#333333" d="M 98.546875 20.070312 C 98.480469 20.007812 98.445312 19.925781 98.445312 19.828125 C 98.445312 19.734375 98.480469 19.652344 98.546875 19.589844 C 98.617188 19.523438 98.703125 19.492188 98.804688 19.492188 C 98.90625 19.492188 98.992188 19.523438 99.058594 19.585938 C 99.128906 19.644531 99.164062 19.722656 99.164062 19.816406 C 99.164062 19.914062 99.128906 20 99.0625 20.066406 C 98.996094 20.132812 98.910156 20.167969 98.804688 20.167969 C 98.703125 20.167969 98.617188 20.136719 98.546875 20.070312 Z M 98.523438 20.5625 L 99.085938 20.5625 L 99.085938 22.964844 L 98.523438 22.964844 Z M 98.523438 20.5625 " fill-opacity="1" fill-rule="nonzero"/><path fill="#333333" d="M 100.375 20.4375 L 100.375 20.582031 L 101.035156 20.582031 L 101.035156 21.03125 L 100.386719 21.03125 L 100.386719 22.960938 L 99.824219 22.960938 L 99.824219 20.425781 C 99.824219 20.171875 99.898438 19.96875 100.046875 19.820312 C 100.199219 19.667969 100.410156 19.59375 100.6875 19.59375 C 100.898438 19.59375 101.066406 19.636719 101.191406 19.726562 L 101.035156 20.148438 C 100.945312 20.082031 100.839844 20.050781 100.730469 20.050781 C 100.492188 20.050781 100.375 20.179688 100.375 20.4375 Z M 100.375 20.4375 " fill-opacity="1" fill-rule="nonzero"/><path fill="#333333" d="M 103.738281 20.5625 L 103.738281 22.964844 L 103.207031 22.964844 L 103.207031 22.65625 C 103.117188 22.765625 103.003906 22.847656 102.867188 22.90625 C 102.734375 22.964844 102.589844 22.996094 102.433594 22.996094 C 102.113281 22.996094 101.859375 22.90625 101.675781 22.726562 C 101.492188 22.546875 101.398438 22.285156 101.398438 21.933594 L 101.398438 20.5625 L 101.960938 20.5625 L 101.960938 21.855469 C 101.960938 22.074219 102.011719 22.234375 102.109375 22.339844 C 102.203125 22.445312 102.34375 22.5 102.523438 22.5 C 102.722656 22.5 102.886719 22.4375 103.003906 22.3125 C 103.121094 22.1875 103.179688 22.007812 103.179688 21.773438 L 103.179688 20.5625 Z M 103.738281 20.5625 " fill-opacity="1" fill-rule="nonzero"/><path fill="#333333" d="M 104.691406 22.789062 C 104.550781 22.652344 104.480469 22.460938 104.480469 22.210938 L 104.480469 19.628906 L 105.042969 19.628906 L 105.042969 22.171875 C 105.042969 22.410156 105.15625 22.53125 105.378906 22.53125 C 105.453125 22.53125 105.523438 22.515625 105.582031 22.484375 L 105.609375 22.9375 C 105.503906 22.976562 105.390625 22.996094 105.269531 22.996094 C 105.023438 22.996094 104.828125 22.925781 104.691406 22.789062 Z M 104.691406 22.789062 " fill-opacity="1" fill-rule="nonzero"/><path fill="#333333" d="M 106.203125 22.789062 C 106.066406 22.652344 105.996094 22.460938 105.996094 22.210938 L 105.996094 19.628906 L 106.558594 19.628906 L 106.558594 22.171875 C 106.558594 22.410156 106.667969 22.53125 106.894531 22.53125 C 106.96875 22.53125 107.035156 22.515625 107.097656 22.484375 L 107.121094 22.9375 C 107.015625 22.976562 106.90625 22.996094 106.785156 22.996094 C 106.539062 22.996094 106.34375 22.925781 106.203125 22.789062 Z M 106.203125 22.789062 " fill-opacity="1" fill-rule="nonzero"/><path fill="#333333" d="M 109.835938 20.5625 L 109.835938 22.597656 C 109.835938 23.445312 109.417969 23.867188 108.589844 23.867188 C 108.371094 23.867188 108.160156 23.839844 107.960938 23.78125 C 107.761719 23.71875 107.597656 23.636719 107.46875 23.527344 L 107.722656 23.101562 C 107.824219 23.1875 107.949219 23.257812 108.09375 23.308594 C 108.242188 23.359375 108.394531 23.386719 108.558594 23.386719 C 108.804688 23.386719 108.984375 23.328125 109.101562 23.207031 C 109.214844 23.089844 109.273438 22.90625 109.273438 22.660156 L 109.273438 22.546875 C 109.183594 22.648438 109.074219 22.722656 108.945312 22.777344 C 108.816406 22.828125 108.675781 22.855469 108.527344 22.855469 C 108.207031 22.855469 107.953125 22.765625 107.769531 22.589844 C 107.585938 22.414062 107.492188 22.148438 107.492188 21.792969 L 107.492188 20.5625 L 108.054688 20.5625 L 108.054688 21.722656 C 108.054688 21.933594 108.101562 22.09375 108.199219 22.199219 C 108.296875 22.304688 108.4375 22.359375 108.617188 22.359375 C 108.816406 22.359375 108.976562 22.296875 109.09375 22.175781 C 109.214844 22.050781 109.273438 21.875 109.273438 21.640625 L 109.273438 20.5625 Z M 109.835938 20.5625 " fill-opacity="1" fill-rule="nonzero"/></svg>