<svg xmlns="http://www.w3.org/2000/svg" xmlns:xlink="http://www.w3.org/1999/xlink" width="160" zoomAndPan="magnify" viewBox="0 0 120 30.000001" height="40" preserveAspectRatio="xMidYMid meet" version="1.0"><path fill="#ffffff" d="M 18.097656 7.691406 C 18.160156 7.601562 18.207031 7.535156 18.253906 7.464844 C 18.839844 6.515625 19.417969 5.558594 20.015625 4.613281 C 20.453125 3.921875 21.238281 3.753906 21.9375 4.1875 C 23.675781 5.257812 25.410156 6.332031 27.140625 7.410156 C 27.84375 7.847656 28.035156 8.640625 27.605469 9.359375 C 26.890625 10.546875 25.566406 11.96875 25.707031 13.445312 C 25.769531 14.105469 26.085938 14.535156 26.449219 15.054688 C 26.867188 15.648438 27.21875 16.308594 27.597656 16.933594 C 28.03125 17.648438 27.859375 18.441406 27.152344 18.882812 C 25.421875 19.96875 23.6875 21.046875 21.953125 22.121094 C 21.222656 22.570312 20.457031 22.390625 19.996094 21.664062 C 19.398438 20.710938 18.816406 19.746094 18.226562 18.789062 C 18.207031 18.761719 18.1875 18.734375 18.144531 18.675781 C 17.863281 19.128906 17.59375 19.5625 17.328125 19.996094 C 16.972656 20.574219 16.621094 21.152344 16.265625 21.726562 C 15.816406 22.445312 15.03125 22.636719 14.308594 22.191406 C 12.566406 21.113281 10.824219 20.03125 9.082031 18.945312 C 8.40625 18.523438 8.21875 17.726562 8.628906 17.039062 C 8.941406 16.515625 9.261719 16 9.582031 15.480469 C 9.867188 15.011719 10.285156 14.503906 10.453125 13.980469 C 10.6875 13.246094 10.503906 12.410156 10.121094 11.757812 C 9.921875 11.417969 9.671875 11.105469 9.460938 10.765625 C 9.199219 10.34375 8.9375 9.917969 8.675781 9.496094 C 8.199219 8.722656 8.378906 7.933594 9.152344 7.453125 C 10.875 6.375 12.601562 5.304688 14.328125 4.234375 C 15.042969 3.792969 15.832031 4.011719 16.289062 4.761719 C 16.863281 5.691406 17.433594 6.625 18.003906 7.554688 C 18.023438 7.59375 18.050781 7.625 18.097656 7.691406 Z M 14.589844 7.292969 C 13.601562 7.910156 12.628906 8.515625 11.65625 9.125 C 11.777344 9.320312 11.867188 9.480469 11.964844 9.632812 C 12.574219 10.625 13.144531 11.5 13.261719 12.695312 C 13.371094 13.84375 13.132812 15.148438 12.425781 16.082031 C 12.136719 16.460938 11.914062 16.898438 11.652344 17.328125 C 12.652344 17.945312 13.625 18.550781 14.625 19.171875 C 14.796875 18.890625 14.960938 18.636719 15.109375 18.375 C 15.511719 17.671875 15.96875 16.988281 16.292969 16.246094 C 16.859375 14.941406 16.820312 13.546875 16.738281 12.160156 C 16.691406 11.429688 16.582031 10.695312 16.234375 10.042969 C 15.75 9.136719 15.207031 8.257812 14.6875 7.371094 C 14.671875 7.34375 14.632812 7.328125 14.589844 7.292969 Z M 24.589844 9.050781 C 23.578125 8.421875 22.613281 7.824219 21.679688 7.246094 C 20.046875 9.242188 19.28125 11.457031 19.472656 14.046875 C 19.617188 16.011719 20.632812 17.523438 21.632812 19.097656 C 22.636719 18.472656 23.605469 17.867188 24.589844 17.253906 C 23.992188 16.28125 23.308594 15.402344 23.070312 14.257812 C 22.773438 12.855469 23.0625 11.558594 23.792969 10.355469 C 24.054688 9.929688 24.316406 9.5 24.589844 9.050781 Z M 24.589844 9.050781 " fill-opacity="1" fill-rule="nonzero"/><path fill="#ffffff" d="M 34.476562 16.441406 C 33.886719 16.136719 33.425781 15.707031 33.09375 15.164062 C 32.761719 14.617188 32.597656 13.996094 32.597656 13.304688 C 32.597656 12.609375 32.761719 11.992188 33.09375 11.445312 C 33.425781 10.898438 33.886719 10.472656 34.476562 10.164062 C 35.066406 9.855469 35.730469 9.703125 36.472656 9.703125 C 37.207031 9.703125 37.84375 9.855469 38.390625 10.164062 C 38.9375 10.472656 39.335938 10.910156 39.585938 11.484375 L 38.023438 12.328125 C 37.660156 11.6875 37.140625 11.367188 36.460938 11.367188 C 35.933594 11.367188 35.5 11.539062 35.15625 11.886719 C 34.808594 12.234375 34.636719 12.707031 34.636719 13.304688 C 34.636719 13.902344 34.808594 14.375 35.15625 14.71875 C 35.5 15.066406 35.933594 15.242188 36.460938 15.242188 C 37.148438 15.242188 37.671875 14.921875 38.023438 14.277344 L 39.585938 15.136719 C 39.335938 15.691406 38.9375 16.125 38.390625 16.4375 C 37.84375 16.746094 37.203125 16.902344 36.472656 16.902344 C 35.730469 16.902344 35.066406 16.75 34.476562 16.441406 Z M 34.476562 16.441406 " fill-opacity="1" fill-rule="nonzero"/><path fill="#ffffff" d="M 41.882812 16.441406 C 41.300781 16.136719 40.847656 15.707031 40.519531 15.164062 C 40.191406 14.617188 40.027344 13.996094 40.027344 13.304688 C 40.027344 12.609375 40.191406 11.992188 40.519531 11.445312 C 40.847656 10.898438 41.300781 10.472656 41.882812 10.164062 C 42.464844 9.855469 43.121094 9.703125 43.855469 9.703125 C 44.585938 9.703125 45.242188 9.855469 45.816406 10.164062 C 46.394531 10.472656 46.847656 10.898438 47.175781 11.445312 C 47.503906 11.988281 47.667969 12.609375 47.667969 13.304688 C 47.667969 13.996094 47.503906 14.617188 47.175781 15.164062 C 46.847656 15.707031 46.394531 16.136719 45.816406 16.441406 C 45.242188 16.75 44.585938 16.90625 43.855469 16.90625 C 43.121094 16.902344 42.464844 16.75 41.882812 16.441406 Z M 45.125 14.714844 C 45.457031 14.363281 45.625 13.894531 45.625 13.304688 C 45.625 12.714844 45.457031 12.242188 45.125 11.894531 C 44.792969 11.542969 44.371094 11.367188 43.855469 11.367188 C 43.335938 11.367188 42.910156 11.542969 42.574219 11.894531 C 42.238281 12.242188 42.070312 12.714844 42.070312 13.304688 C 42.070312 13.894531 42.238281 14.363281 42.574219 14.714844 C 42.910156 15.0625 43.335938 15.242188 43.855469 15.242188 C 44.371094 15.242188 44.792969 15.0625 45.125 14.714844 Z M 45.125 14.714844 " fill-opacity="1" fill-rule="nonzero"/><path fill="#ffffff" d="M 59.875 10.476562 C 60.386719 10.992188 60.644531 11.765625 60.644531 12.796875 L 60.644531 16.800781 L 58.625 16.800781 L 58.625 13.109375 C 58.625 12.554688 58.511719 12.140625 58.285156 11.867188 C 58.054688 11.59375 57.730469 11.457031 57.308594 11.457031 C 56.832031 11.457031 56.460938 11.613281 56.183594 11.917969 C 55.90625 12.226562 55.769531 12.683594 55.769531 13.289062 L 55.769531 16.800781 L 53.753906 16.800781 L 53.753906 13.109375 C 53.753906 12.007812 53.316406 11.457031 52.4375 11.457031 C 51.972656 11.457031 51.601562 11.613281 51.324219 11.921875 C 51.050781 12.226562 50.910156 12.683594 50.910156 13.292969 L 50.910156 16.800781 L 48.894531 16.800781 L 48.894531 9.808594 L 50.820312 9.808594 L 50.820312 10.613281 C 51.082031 10.316406 51.398438 10.09375 51.773438 9.9375 C 52.148438 9.78125 52.558594 9.703125 53.007812 9.703125 C 53.496094 9.703125 53.941406 9.800781 54.339844 9.996094 C 54.734375 10.191406 55.054688 10.472656 55.292969 10.847656 C 55.578125 10.484375 55.9375 10.203125 56.375 10.003906 C 56.808594 9.800781 57.285156 9.703125 57.800781 9.703125 C 58.671875 9.703125 59.363281 9.960938 59.875 10.476562 Z M 59.875 10.476562 " fill-opacity="1" fill-rule="nonzero"/><path fill="#ffffff" d="M 64.300781 9.960938 L 66.085938 9.960938 L 66.085938 11.523438 L 64.351562 11.523438 L 64.351562 16.800781 L 62.335938 16.800781 L 62.335938 9.652344 C 62.335938 8.851562 62.570312 8.222656 63.039062 7.753906 C 63.511719 7.285156 64.171875 7.050781 65.023438 7.050781 C 65.324219 7.050781 65.613281 7.082031 65.882812 7.148438 C 66.15625 7.214844 66.382812 7.304688 66.5625 7.429688 L 66.03125 8.898438 C 65.800781 8.734375 65.527344 8.648438 65.21875 8.648438 C 64.605469 8.648438 64.300781 8.988281 64.300781 9.664062 Z M 64.300781 9.960938 " fill-opacity="1" fill-rule="nonzero"/><path fill="#ffffff" d="M 68.222656 16.441406 C 67.640625 16.136719 67.1875 15.707031 66.859375 15.164062 C 66.53125 14.617188 66.367188 13.996094 66.367188 13.304688 C 66.367188 12.609375 66.53125 11.992188 66.859375 11.445312 C 67.1875 10.898438 67.640625 10.472656 68.222656 10.164062 C 68.804688 9.855469 69.460938 9.703125 70.195312 9.703125 C 70.925781 9.703125 71.582031 9.855469 72.160156 10.164062 C 72.734375 10.472656 73.1875 10.898438 73.515625 11.445312 C 73.84375 11.988281 74.007812 12.609375 74.007812 13.304688 C 74.007812 13.996094 73.84375 14.617188 73.515625 15.164062 C 73.1875 15.707031 72.734375 16.136719 72.160156 16.441406 C 71.582031 16.75 70.925781 16.90625 70.195312 16.90625 C 69.460938 16.902344 68.804688 16.75 68.222656 16.441406 Z M 71.46875 14.714844 C 71.800781 14.363281 71.964844 13.894531 71.964844 13.304688 C 71.964844 12.714844 71.800781 12.242188 71.46875 11.894531 C 71.136719 11.542969 70.710938 11.367188 70.195312 11.367188 C 69.679688 11.367188 69.25 11.542969 68.914062 11.894531 C 68.578125 12.242188 68.410156 12.714844 68.410156 13.304688 C 68.410156 13.894531 68.578125 14.363281 68.914062 14.714844 C 69.25 15.0625 69.679688 15.242188 70.195312 15.242188 C 70.710938 15.242188 71.136719 15.0625 71.46875 14.714844 Z M 71.46875 14.714844 " fill-opacity="1" fill-rule="nonzero"/><path fill="#ffffff" d="M 78.136719 9.960938 C 78.546875 9.789062 79.019531 9.703125 79.550781 9.703125 L 79.550781 11.574219 C 79.328125 11.558594 79.175781 11.550781 79.101562 11.550781 C 78.523438 11.550781 78.070312 11.710938 77.742188 12.035156 C 77.414062 12.359375 77.25 12.847656 77.25 13.5 L 77.25 16.800781 L 75.234375 16.800781 L 75.234375 9.808594 L 77.160156 9.808594 L 77.160156 10.730469 C 77.402344 10.390625 77.726562 10.136719 78.136719 9.960938 Z M 78.136719 9.960938 " fill-opacity="1" fill-rule="nonzero"/><path fill="#ffffff" d="M 84.828125 16.460938 C 84.628906 16.609375 84.382812 16.71875 84.097656 16.792969 C 83.808594 16.867188 83.507812 16.902344 83.199219 16.902344 C 82.363281 16.902344 81.71875 16.691406 81.273438 16.265625 C 80.824219 15.839844 80.601562 15.21875 80.601562 14.394531 L 80.601562 8.261719 L 82.617188 8.261719 L 82.617188 9.960938 L 84.335938 9.960938 L 84.335938 11.523438 L 82.617188 11.523438 L 82.617188 14.367188 C 82.617188 14.664062 82.6875 14.890625 82.835938 15.050781 C 82.980469 15.210938 83.195312 15.292969 83.46875 15.292969 C 83.78125 15.292969 84.054688 15.203125 84.296875 15.03125 Z M 84.828125 16.460938 " fill-opacity="1" fill-rule="nonzero"/><path fill="#ffffff" d="M 92.160156 10.484375 C 92.691406 11.003906 92.957031 11.773438 92.957031 12.796875 L 92.957031 16.800781 L 90.941406 16.800781 L 90.941406 13.109375 C 90.941406 12.554688 90.820312 12.140625 90.578125 11.867188 C 90.335938 11.59375 89.988281 11.457031 89.53125 11.457031 C 89.023438 11.457031 88.617188 11.613281 88.316406 11.933594 C 88.015625 12.25 87.863281 12.71875 87.863281 13.34375 L 87.863281 16.800781 L 85.847656 16.800781 L 85.847656 7.15625 L 87.863281 7.15625 L 87.863281 10.535156 C 88.128906 10.265625 88.453125 10.058594 88.832031 9.917969 C 89.214844 9.773438 89.625 9.703125 90.074219 9.703125 C 90.933594 9.703125 91.632812 9.960938 92.160156 10.484375 Z M 92.160156 10.484375 " fill-opacity="1" fill-rule="nonzero"/><path fill="#ffffff" d="M 101.667969 9.808594 L 101.667969 16.800781 L 99.753906 16.800781 L 99.753906 15.96875 C 99.484375 16.269531 99.167969 16.503906 98.796875 16.664062 C 98.425781 16.824219 98.027344 16.902344 97.59375 16.902344 C 96.679688 16.902344 95.957031 16.640625 95.421875 16.109375 C 94.886719 15.582031 94.621094 14.796875 94.621094 13.757812 L 94.621094 9.808594 L 96.636719 9.808594 L 96.636719 13.460938 C 96.636719 14.585938 97.109375 15.148438 98.046875 15.148438 C 98.53125 15.148438 98.917969 14.992188 99.210938 14.675781 C 99.503906 14.359375 99.648438 13.886719 99.648438 13.265625 L 99.648438 9.808594 Z M 101.667969 9.808594 " fill-opacity="1" fill-rule="nonzero"/><path fill="#ffffff" d="M 109.300781 10.152344 C 109.828125 10.449219 110.246094 10.871094 110.546875 11.410156 C 110.847656 11.953125 111 12.585938 111 13.304688 C 111 14.023438 110.847656 14.652344 110.546875 15.195312 C 110.246094 15.738281 109.828125 16.15625 109.300781 16.457031 C 108.769531 16.753906 108.183594 16.902344 107.535156 16.902344 C 106.578125 16.902344 105.851562 16.601562 105.351562 15.992188 L 105.351562 16.800781 L 103.425781 16.800781 L 103.425781 7.15625 L 105.441406 7.15625 L 105.441406 10.546875 C 105.949219 9.984375 106.648438 9.703125 107.535156 9.703125 C 108.183594 9.703125 108.769531 9.851562 109.300781 10.152344 Z M 108.460938 14.714844 C 108.792969 14.363281 108.957031 13.894531 108.957031 13.304688 C 108.957031 12.714844 108.792969 12.242188 108.460938 11.894531 C 108.128906 11.542969 107.703125 11.367188 107.1875 11.367188 C 106.671875 11.367188 106.246094 11.542969 105.914062 11.894531 C 105.582031 12.242188 105.417969 12.714844 105.417969 13.304688 C 105.417969 13.894531 105.582031 14.363281 105.914062 14.714844 C 106.246094 15.0625 106.671875 15.242188 107.1875 15.242188 C 107.703125 15.242188 108.128906 15.0625 108.460938 14.714844 Z M 108.460938 14.714844 " fill-opacity="1" fill-rule="nonzero"/><path fill="#ffffff" d="M 73.460938 20.84375 C 73.644531 20.945312 73.789062 21.089844 73.894531 21.277344 C 74 21.464844 74.050781 21.679688 74.050781 21.925781 C 74.050781 22.171875 74 22.386719 73.894531 22.574219 C 73.789062 22.761719 73.644531 22.910156 73.460938 23.011719 C 73.277344 23.113281 73.066406 23.167969 72.832031 23.167969 C 72.667969 23.167969 72.519531 23.136719 72.382812 23.082031 C 72.246094 23.023438 72.128906 22.9375 72.039062 22.824219 L 72.039062 23.136719 L 71.503906 23.136719 L 71.503906 19.777344 L 72.066406 19.777344 L 72.066406 21.011719 C 72.160156 20.90625 72.273438 20.828125 72.40625 20.773438 C 72.535156 20.71875 72.679688 20.691406 72.832031 20.691406 C 73.066406 20.691406 73.277344 20.742188 73.460938 20.84375 Z M 73.28125 22.472656 C 73.414062 22.335938 73.480469 22.152344 73.480469 21.925781 C 73.480469 21.699219 73.414062 21.515625 73.28125 21.378906 C 73.148438 21.238281 72.976562 21.171875 72.769531 21.171875 C 72.636719 21.171875 72.515625 21.203125 72.40625 21.261719 C 72.296875 21.324219 72.210938 21.414062 72.148438 21.527344 C 72.085938 21.644531 72.054688 21.773438 72.054688 21.925781 C 72.054688 22.078125 72.085938 22.207031 72.148438 22.324219 C 72.214844 22.4375 72.296875 22.527344 72.40625 22.589844 C 72.515625 22.648438 72.636719 22.679688 72.769531 22.679688 C 72.976562 22.679688 73.148438 22.613281 73.28125 22.472656 Z M 73.28125 22.472656 " fill-opacity="1" fill-rule="nonzero"/><path fill="#ffffff" d="M 76.921875 20.71875 L 76.921875 23.136719 L 76.382812 23.136719 L 76.382812 22.828125 C 76.292969 22.9375 76.183594 23.019531 76.046875 23.078125 C 75.914062 23.136719 75.765625 23.167969 75.613281 23.167969 C 75.289062 23.167969 75.039062 23.078125 74.851562 22.898438 C 74.667969 22.71875 74.578125 22.453125 74.578125 22.097656 L 74.578125 20.71875 L 75.140625 20.71875 L 75.140625 22.019531 C 75.140625 22.238281 75.1875 22.398438 75.285156 22.507812 C 75.382812 22.613281 75.523438 22.667969 75.703125 22.667969 C 75.902344 22.667969 76.0625 22.605469 76.183594 22.480469 C 76.300781 22.355469 76.359375 22.175781 76.359375 21.9375 L 76.359375 20.714844 L 76.921875 20.714844 Z M 76.921875 20.71875 " fill-opacity="1" fill-rule="nonzero"/><path fill="#ffffff" d="M 77.691406 20.222656 C 77.621094 20.15625 77.585938 20.078125 77.585938 19.980469 C 77.585938 19.882812 77.621094 19.800781 77.691406 19.738281 C 77.757812 19.671875 77.84375 19.640625 77.945312 19.640625 C 78.046875 19.640625 78.132812 19.671875 78.203125 19.734375 C 78.273438 19.792969 78.304688 19.871094 78.304688 19.964844 C 78.304688 20.066406 78.273438 20.148438 78.203125 20.214844 C 78.136719 20.285156 78.050781 20.320312 77.945312 20.320312 C 77.84375 20.320312 77.757812 20.289062 77.691406 20.222656 Z M 77.664062 20.71875 L 78.226562 20.71875 L 78.226562 23.136719 L 77.664062 23.136719 Z M 77.664062 20.71875 " fill-opacity="1" fill-rule="nonzero"/><path fill="#ffffff" d="M 79.175781 22.960938 C 79.039062 22.824219 78.96875 22.628906 78.96875 22.378906 L 78.96875 19.777344 L 79.53125 19.777344 L 79.53125 22.335938 C 79.53125 22.578125 79.644531 22.699219 79.867188 22.699219 C 79.945312 22.699219 80.011719 22.683594 80.070312 22.65625 L 80.097656 23.105469 C 79.992188 23.148438 79.878906 23.167969 79.757812 23.167969 C 79.511719 23.167969 79.316406 23.097656 79.175781 22.960938 Z M 79.175781 22.960938 " fill-opacity="1" fill-rule="nonzero"/><path fill="#ffffff" d="M 82.792969 19.777344 L 82.792969 23.132812 L 82.253906 23.132812 L 82.253906 22.820312 C 82.160156 22.9375 82.046875 23.023438 81.910156 23.078125 C 81.773438 23.136719 81.621094 23.164062 81.457031 23.164062 C 81.226562 23.164062 81.019531 23.113281 80.832031 23.011719 C 80.648438 22.910156 80.503906 22.761719 80.398438 22.574219 C 80.292969 22.386719 80.242188 22.167969 80.242188 21.925781 C 80.242188 21.679688 80.292969 21.464844 80.398438 21.277344 C 80.503906 21.089844 80.648438 20.945312 80.832031 20.84375 C 81.019531 20.742188 81.226562 20.6875 81.457031 20.6875 C 81.617188 20.6875 81.761719 20.714844 81.894531 20.769531 C 82.023438 20.824219 82.136719 20.90625 82.230469 21.015625 L 82.230469 19.773438 L 82.792969 19.773438 Z M 81.890625 22.589844 C 81.996094 22.527344 82.082031 22.4375 82.144531 22.324219 C 82.210938 22.207031 82.242188 22.078125 82.242188 21.925781 C 82.242188 21.773438 82.210938 21.644531 82.144531 21.527344 C 82.082031 21.414062 81.996094 21.324219 81.890625 21.261719 C 81.78125 21.203125 81.660156 21.171875 81.523438 21.171875 C 81.390625 21.171875 81.269531 21.203125 81.160156 21.261719 C 81.050781 21.324219 80.964844 21.414062 80.902344 21.527344 C 80.839844 21.644531 80.808594 21.773438 80.808594 21.925781 C 80.808594 22.078125 80.839844 22.207031 80.902344 22.324219 C 80.96875 22.4375 81.054688 22.527344 81.160156 22.589844 C 81.269531 22.648438 81.390625 22.679688 81.523438 22.679688 C 81.660156 22.679688 81.78125 22.652344 81.890625 22.589844 Z M 81.890625 22.589844 " fill-opacity="1" fill-rule="nonzero"/><path fill="#ffffff" d="M 86.742188 20.84375 C 86.929688 20.945312 87.070312 21.089844 87.175781 21.277344 C 87.28125 21.464844 87.335938 21.679688 87.335938 21.925781 C 87.335938 22.171875 87.28125 22.386719 87.175781 22.574219 C 87.070312 22.761719 86.925781 22.910156 86.742188 23.011719 C 86.558594 23.113281 86.351562 23.167969 86.117188 23.167969 C 85.949219 23.167969 85.800781 23.136719 85.664062 23.082031 C 85.527344 23.023438 85.410156 22.9375 85.320312 22.824219 L 85.320312 23.136719 L 84.785156 23.136719 L 84.785156 19.777344 L 85.347656 19.777344 L 85.347656 21.011719 C 85.441406 20.90625 85.554688 20.828125 85.6875 20.773438 C 85.816406 20.71875 85.960938 20.691406 86.117188 20.691406 C 86.347656 20.691406 86.558594 20.742188 86.742188 20.84375 Z M 86.5625 22.472656 C 86.695312 22.335938 86.765625 22.152344 86.765625 21.925781 C 86.765625 21.699219 86.695312 21.515625 86.5625 21.378906 C 86.429688 21.238281 86.261719 21.171875 86.050781 21.171875 C 85.917969 21.171875 85.796875 21.203125 85.6875 21.261719 C 85.578125 21.324219 85.492188 21.414062 85.429688 21.527344 C 85.367188 21.644531 85.335938 21.773438 85.335938 21.925781 C 85.335938 22.078125 85.367188 22.207031 85.429688 22.324219 C 85.496094 22.4375 85.582031 22.527344 85.6875 22.589844 C 85.796875 22.648438 85.917969 22.679688 86.050781 22.679688 C 86.257812 22.679688 86.429688 22.613281 86.5625 22.472656 Z M 86.5625 22.472656 " fill-opacity="1" fill-rule="nonzero"/><path fill="#ffffff" d="M 89.671875 22.421875 L 89.964844 22.773438 C 89.863281 22.902344 89.726562 23 89.5625 23.066406 C 89.394531 23.132812 89.210938 23.167969 89.003906 23.167969 C 88.738281 23.167969 88.507812 23.113281 88.304688 23.007812 C 88.105469 22.902344 87.949219 22.753906 87.839844 22.566406 C 87.730469 22.378906 87.675781 22.164062 87.675781 21.925781 C 87.675781 21.691406 87.730469 21.480469 87.835938 21.289062 C 87.941406 21.101562 88.089844 20.957031 88.277344 20.851562 C 88.460938 20.746094 88.675781 20.691406 88.914062 20.691406 C 89.136719 20.691406 89.34375 20.738281 89.527344 20.839844 C 89.710938 20.9375 89.859375 21.078125 89.964844 21.257812 C 90.074219 21.441406 90.128906 21.65625 90.128906 21.898438 L 88.285156 22.261719 C 88.34375 22.402344 88.433594 22.507812 88.5625 22.578125 C 88.6875 22.652344 88.839844 22.6875 89.015625 22.6875 C 89.277344 22.6875 89.496094 22.597656 89.671875 22.421875 Z M 88.410156 21.347656 C 88.285156 21.484375 88.21875 21.664062 88.21875 21.894531 L 88.21875 21.898438 L 89.578125 21.636719 C 89.539062 21.488281 89.460938 21.371094 89.34375 21.28125 C 89.222656 21.1875 89.082031 21.144531 88.914062 21.144531 C 88.707031 21.140625 88.539062 21.210938 88.410156 21.347656 Z M 88.410156 21.347656 " fill-opacity="1" fill-rule="nonzero"/><path fill="#ffffff" d="M 93.023438 20.71875 L 93.023438 23.136719 L 92.488281 23.136719 L 92.488281 22.824219 C 92.394531 22.9375 92.28125 23.023438 92.144531 23.082031 C 92.007812 23.136719 91.855469 23.167969 91.691406 23.167969 C 91.457031 23.167969 91.25 23.113281 91.0625 23.011719 C 90.878906 22.910156 90.734375 22.765625 90.632812 22.578125 C 90.527344 22.390625 90.476562 22.175781 90.476562 21.925781 C 90.476562 21.679688 90.53125 21.460938 90.632812 21.277344 C 90.734375 21.089844 90.878906 20.945312 91.0625 20.84375 C 91.25 20.742188 91.457031 20.691406 91.691406 20.691406 C 91.847656 20.691406 91.992188 20.714844 92.121094 20.769531 C 92.25 20.824219 92.363281 20.90625 92.460938 21.011719 L 92.460938 20.714844 L 93.023438 20.714844 Z M 92.269531 22.472656 C 92.402344 22.335938 92.46875 22.152344 92.46875 21.925781 C 92.46875 21.699219 92.402344 21.515625 92.269531 21.378906 C 92.132812 21.238281 91.960938 21.171875 91.753906 21.171875 C 91.546875 21.171875 91.375 21.238281 91.242188 21.378906 C 91.109375 21.515625 91.042969 21.699219 91.042969 21.925781 C 91.042969 22.152344 91.109375 22.335938 91.242188 22.472656 C 91.375 22.613281 91.546875 22.679688 91.753906 22.679688 C 91.960938 22.679688 92.132812 22.613281 92.269531 22.472656 Z M 92.269531 22.472656 " fill-opacity="1" fill-rule="nonzero"/><path fill="#ffffff" d="M 96.09375 20.71875 L 96.09375 23.136719 L 95.558594 23.136719 L 95.558594 22.828125 C 95.46875 22.9375 95.355469 23.019531 95.222656 23.078125 C 95.085938 23.136719 94.941406 23.167969 94.785156 23.167969 C 94.464844 23.167969 94.210938 23.078125 94.027344 22.898438 C 93.84375 22.71875 93.75 22.453125 93.75 22.097656 L 93.75 20.71875 L 94.3125 20.71875 L 94.3125 22.019531 C 94.3125 22.238281 94.359375 22.398438 94.460938 22.507812 C 94.554688 22.613281 94.695312 22.667969 94.875 22.667969 C 95.078125 22.667969 95.238281 22.605469 95.355469 22.480469 C 95.472656 22.355469 95.53125 22.175781 95.53125 21.9375 L 95.53125 20.714844 L 96.09375 20.714844 Z M 96.09375 20.71875 " fill-opacity="1" fill-rule="nonzero"/><path fill="#ffffff" d="M 98.1875 23.003906 C 98.121094 23.058594 98.039062 23.097656 97.945312 23.125 C 97.851562 23.152344 97.75 23.164062 97.644531 23.164062 C 97.382812 23.164062 97.175781 23.09375 97.035156 22.957031 C 96.890625 22.816406 96.816406 22.617188 96.816406 22.351562 L 96.816406 20.183594 L 97.382812 20.183594 L 97.382812 20.734375 L 98.023438 20.734375 L 98.023438 21.1875 L 97.382812 21.1875 L 97.382812 22.335938 C 97.382812 22.453125 97.410156 22.546875 97.46875 22.605469 C 97.527344 22.667969 97.609375 22.699219 97.714844 22.699219 C 97.839844 22.699219 97.945312 22.667969 98.027344 22.601562 Z M 98.1875 23.003906 " fill-opacity="1" fill-rule="nonzero"/><path fill="#ffffff" d="M 98.679688 20.222656 C 98.613281 20.15625 98.578125 20.078125 98.578125 19.980469 C 98.578125 19.882812 98.613281 19.800781 98.679688 19.738281 C 98.75 19.671875 98.835938 19.640625 98.9375 19.640625 C 99.039062 19.640625 99.125 19.671875 99.191406 19.734375 C 99.261719 19.792969 99.296875 19.871094 99.296875 19.964844 C 99.296875 20.066406 99.261719 20.148438 99.195312 20.214844 C 99.128906 20.285156 99.042969 20.320312 98.9375 20.320312 C 98.835938 20.320312 98.75 20.289062 98.679688 20.222656 Z M 98.652344 20.71875 L 99.21875 20.71875 L 99.21875 23.136719 L 98.652344 23.136719 Z M 98.652344 20.71875 " fill-opacity="1" fill-rule="nonzero"/><path fill="#ffffff" d="M 100.507812 20.589844 L 100.507812 20.734375 L 101.167969 20.734375 L 101.167969 21.1875 L 100.519531 21.1875 L 100.519531 23.132812 L 99.957031 23.132812 L 99.957031 20.582031 C 99.957031 20.324219 100.03125 20.121094 100.183594 19.96875 C 100.332031 19.816406 100.546875 19.742188 100.824219 19.742188 C 101.035156 19.742188 101.203125 19.785156 101.328125 19.875 L 101.167969 20.300781 C 101.078125 20.234375 100.976562 20.199219 100.863281 20.199219 C 100.625 20.203125 100.507812 20.332031 100.507812 20.589844 Z M 100.507812 20.589844 " fill-opacity="1" fill-rule="nonzero"/><path fill="#ffffff" d="M 103.878906 20.71875 L 103.878906 23.136719 L 103.34375 23.136719 L 103.34375 22.828125 C 103.253906 22.9375 103.140625 23.019531 103.007812 23.078125 C 102.871094 23.136719 102.726562 23.167969 102.570312 23.167969 C 102.25 23.167969 101.996094 23.078125 101.8125 22.898438 C 101.628906 22.71875 101.535156 22.453125 101.535156 22.097656 L 101.535156 20.71875 L 102.097656 20.71875 L 102.097656 22.019531 C 102.097656 22.238281 102.148438 22.398438 102.246094 22.507812 C 102.34375 22.613281 102.480469 22.667969 102.660156 22.667969 C 102.863281 22.667969 103.023438 22.605469 103.140625 22.480469 C 103.261719 22.355469 103.320312 22.175781 103.320312 21.9375 L 103.320312 20.714844 L 103.878906 20.714844 Z M 103.878906 20.71875 " fill-opacity="1" fill-rule="nonzero"/><path fill="#ffffff" d="M 104.832031 22.960938 C 104.691406 22.824219 104.621094 22.628906 104.621094 22.378906 L 104.621094 19.777344 L 105.183594 19.777344 L 105.183594 22.335938 C 105.183594 22.578125 105.296875 22.699219 105.523438 22.699219 C 105.597656 22.699219 105.664062 22.683594 105.722656 22.65625 L 105.75 23.105469 C 105.644531 23.148438 105.53125 23.167969 105.414062 23.167969 C 105.164062 23.167969 104.96875 23.097656 104.832031 22.960938 Z M 104.832031 22.960938 " fill-opacity="1" fill-rule="nonzero"/><path fill="#ffffff" d="M 106.347656 22.960938 C 106.207031 22.824219 106.140625 22.628906 106.140625 22.378906 L 106.140625 19.777344 L 106.703125 19.777344 L 106.703125 22.335938 C 106.703125 22.578125 106.8125 22.699219 107.039062 22.699219 C 107.113281 22.699219 107.179688 22.683594 107.238281 22.65625 L 107.265625 23.105469 C 107.160156 23.148438 107.046875 23.167969 106.929688 23.167969 C 106.679688 23.167969 106.488281 23.097656 106.347656 22.960938 Z M 106.347656 22.960938 " fill-opacity="1" fill-rule="nonzero"/><path fill="#ffffff" d="M 109.980469 20.71875 L 109.980469 22.769531 C 109.980469 23.617188 109.566406 24.042969 108.734375 24.042969 C 108.515625 24.042969 108.308594 24.015625 108.109375 23.957031 C 107.910156 23.898438 107.746094 23.8125 107.613281 23.703125 L 107.867188 23.273438 C 107.96875 23.363281 108.09375 23.433594 108.242188 23.484375 C 108.386719 23.535156 108.542969 23.558594 108.703125 23.558594 C 108.949219 23.558594 109.132812 23.5 109.246094 23.382812 C 109.363281 23.261719 109.421875 23.078125 109.421875 22.832031 L 109.421875 22.71875 C 109.328125 22.816406 109.21875 22.890625 109.089844 22.945312 C 108.960938 23 108.824219 23.023438 108.671875 23.023438 C 108.351562 23.023438 108.097656 22.933594 107.914062 22.757812 C 107.730469 22.582031 107.636719 22.3125 107.636719 21.957031 L 107.636719 20.714844 L 108.199219 20.714844 L 108.199219 21.882812 C 108.199219 22.097656 108.25 22.257812 108.347656 22.367188 C 108.445312 22.472656 108.582031 22.527344 108.761719 22.527344 C 108.964844 22.527344 109.125 22.464844 109.242188 22.339844 C 109.359375 22.214844 109.421875 22.039062 109.421875 21.800781 L 109.421875 20.714844 L 109.980469 20.714844 Z M 109.980469 20.71875 " fill-opacity="1" fill-rule="nonzero"/></svg>