<svg xmlns="http://www.w3.org/2000/svg" version="1.1" xmlns:xlink="http://www.w3.org/1999/xlink" xmlns:svgjs="http://svgjs.dev/svgjs" width="40" height="40"><svg xmlns="http://www.w3.org/2000/svg" xmlns:xlink="http://www.w3.org/1999/xlink" width="40" zoomAndPan="magnify" viewBox="0 0 30 30.000001" height="40" preserveAspectRatio="xMidYMid meet" version="1.0"><defs><clipPath id="SvgjsClipPath1003"><path d="M 0.484375 0 L 29.515625 0 L 29.515625 29.03125 L 0.484375 29.03125 Z M 0.484375 0 " clip-rule="nonzero"></path></clipPath><clipPath id="SvgjsClipPath1002"><path d="M 4.839844 0 L 25.160156 0 C 27.566406 0 29.515625 1.949219 29.515625 4.355469 L 29.515625 24.675781 C 29.515625 27.082031 27.566406 29.03125 25.160156 29.03125 L 4.839844 29.03125 C 2.433594 29.03125 0.484375 27.082031 0.484375 24.675781 L 0.484375 4.355469 C 0.484375 1.949219 2.433594 0 4.839844 0 Z M 4.839844 0 " clip-rule="nonzero"></path></clipPath></defs><g clip-path="url(#f6d2c3d85c)"><g clip-path="url(#66ef65bbe1)"><path fill="#333333" d="M 0.484375 0 L 29.515625 0 L 29.515625 29.03125 L 0.484375 29.03125 Z M 0.484375 0 " fill-opacity="1" fill-rule="nonzero"></path></g></g><path fill="#ffffff" d="M 15.058594 8.507812 C 15.128906 8.410156 15.179688 8.339844 15.226562 8.265625 C 15.863281 7.25 16.488281 6.226562 17.136719 5.21875 C 17.609375 4.476562 18.457031 4.296875 19.214844 4.757812 C 21.09375 5.90625 22.96875 7.054688 24.84375 8.207031 C 25.601562 8.675781 25.8125 9.523438 25.34375 10.289062 C 24.570312 11.5625 23.140625 13.082031 23.292969 14.664062 C 23.359375 15.367188 23.703125 15.828125 24.09375 16.382812 C 24.546875 17.019531 24.929688 17.726562 25.339844 18.394531 C 25.808594 19.15625 25.617188 20.003906 24.855469 20.476562 C 22.984375 21.636719 21.109375 22.792969 19.230469 23.941406 C 18.441406 24.421875 17.609375 24.230469 17.117188 23.453125 C 16.464844 22.433594 15.835938 21.402344 15.199219 20.375 C 15.179688 20.347656 15.15625 20.320312 15.109375 20.257812 C 14.804688 20.742188 14.515625 21.207031 14.226562 21.667969 C 13.84375 22.285156 13.464844 22.90625 13.078125 23.519531 C 12.59375 24.289062 11.742188 24.496094 10.960938 24.019531 C 9.074219 22.863281 7.191406 21.707031 5.308594 20.546875 C 4.578125 20.09375 4.371094 19.242188 4.820312 18.503906 C 5.15625 17.949219 5.503906 17.394531 5.847656 16.839844 C 6.15625 16.339844 6.609375 15.792969 6.789062 15.234375 C 7.042969 14.445312 6.84375 13.554688 6.433594 12.859375 C 6.214844 12.492188 5.945312 12.160156 5.71875 11.796875 C 5.433594 11.34375 5.152344 10.890625 4.867188 10.4375 C 4.351562 9.609375 4.546875 8.769531 5.382812 8.253906 C 7.246094 7.101562 9.113281 5.953125 10.984375 4.8125 C 11.757812 4.339844 12.609375 4.570312 13.105469 5.375 C 13.722656 6.371094 14.339844 7.367188 14.960938 8.363281 C 14.980469 8.402344 15.007812 8.4375 15.058594 8.507812 Z M 11.265625 8.082031 C 10.195312 8.742188 9.144531 9.390625 8.09375 10.039062 C 8.222656 10.253906 8.320312 10.417969 8.425781 10.585938 C 9.085938 11.644531 9.703125 12.582031 9.828125 13.859375 C 9.949219 15.089844 9.6875 16.484375 8.921875 17.480469 C 8.609375 17.890625 8.375 18.355469 8.089844 18.8125 C 9.167969 19.476562 10.222656 20.125 11.304688 20.785156 C 11.492188 20.484375 11.667969 20.214844 11.828125 19.9375 C 12.261719 19.179688 12.757812 18.449219 13.105469 17.65625 C 13.71875 16.265625 13.679688 14.769531 13.589844 13.289062 C 13.539062 12.507812 13.417969 11.71875 13.042969 11.023438 C 12.519531 10.050781 11.933594 9.113281 11.371094 8.164062 C 11.351562 8.136719 11.3125 8.121094 11.265625 8.082031 Z M 22.085938 9.960938 C 20.992188 9.292969 19.945312 8.648438 18.9375 8.03125 C 17.167969 10.164062 16.339844 12.535156 16.546875 15.304688 C 16.703125 17.410156 17.800781 19.023438 18.886719 20.707031 C 19.96875 20.039062 21.019531 19.394531 22.085938 18.738281 C 21.4375 17.695312 20.699219 16.753906 20.4375 15.53125 C 20.121094 14.03125 20.433594 12.640625 21.222656 11.359375 C 21.503906 10.898438 21.785156 10.445312 22.085938 9.960938 Z M 22.085938 9.960938 " fill-opacity="1" fill-rule="nonzero"></path></svg><style>@media (prefers-color-scheme: light) { :root { filter: none; } }
@media (prefers-color-scheme: dark) { :root { filter: none; } }
</style></svg>